<svg width="64" height="64" viewBox="0 0 64 64" fill="none" xmlns="http://www.w3.org/2000/svg">
  <circle cx="32" cy="32" r="30" fill="#6366F1"/>
  <path d="M32 16C23.164 16 16 23.164 16 32C16 40.836 23.164 48 32 48C40.836 48 48 40.836 48 32C48 23.164 40.836 16 32 16ZM32 20C38.627 20 44 25.373 44 32C44 38.627 38.627 44 32 44C25.373 44 20 38.627 20 32C20 25.373 25.373 20 32 20Z" fill="white"/>
  <path d="M32 24C28.686 24 26 26.686 26 30C26 33.314 28.686 36 32 36C35.314 36 38 33.314 38 30C38 26.686 35.314 24 32 24Z" fill="white"/>
</svg> 