<svg width="24" height="24" viewBox="0 0 24 24" fill="none" xmlns="http://www.w3.org/2000/svg">
  <path d="M8.5 13.5C7.67157 13.5 7 12.8284 7 12C7 11.1716 7.67157 10.5 8.5 10.5C9.32843 10.5 10 11.1716 10 12C10 12.8284 9.32843 13.5 8.5 13.5Z" fill="#07C160"/>
  <path d="M15.5 13.5C14.6716 13.5 14 12.8284 14 12C14 11.1716 14.6716 10.5 15.5 10.5C16.3284 10.5 17 11.1716 17 12C17 12.8284 16.3284 13.5 15.5 13.5Z" fill="#07C160"/>
  <path fill-rule="evenodd" clip-rule="evenodd" d="M12 2C6.47715 2 2 6.47715 2 12C2 17.5228 6.47715 22 12 22C17.5228 22 22 17.5228 22 12C22 6.47715 17.5228 2 12 2ZM12 4C16.4183 4 20 7.58172 20 12C20 16.4183 16.4183 20 12 20C7.58172 20 4 16.4183 4 12C4 7.58172 7.58172 4 12 4Z" fill="#07C160"/>
</svg> 